<?xml version="1.0" encoding="utf-8"?>
<!-- Generator: Adobe Illustrator 16.0.0, SVG Export Plug-In . SVG Version: 6.00 Build 0)  -->
<!DOCTYPE svg PUBLIC "-//W3C//DTD SVG 1.1//EN" "http://www.w3.org/Graphics/SVG/1.1/DTD/svg11.dtd">
<svg version="1.1" id="Layer_1" xmlns="http://www.w3.org/2000/svg" xmlns:xlink="http://www.w3.org/1999/xlink" x="0px" y="0px"
	 width="115px" height="90px" viewBox="0 0 115 90" preserveAspectRatio="xMidyMid meet" enable-background="new 0 0 115 90" xml:space="preserve">
<path fill="#377F95" d="M113.938,58.936c-6.274-0.592-4.601-6.821-4.761-10.922c-0.032-0.857-0.125-3.825,0.252-6.273
	c0.315-0.684,0.503-1.418,0.562-2.199c0.337-0.799,0.802-1.32,1.442-1.333c0.652-0.012,1.072-0.539,1.053-1.078
	c0.005-0.045,0.024-0.082,0.021-0.13c-0.195-4.05-4.328-5.635-6.081-8.686c-0.013-0.591-0.035-1.165-0.12-1.69
	c-0.156-0.966-1.113-2.052-1.743-2.773c-2.511-2.873-1.65-5.562-1.685-8.893c-0.009-0.814-1.224-1.465-1.835-0.726
	c-0.263,0.319-0.509,0.651-0.752,0.986c0.045-2.247-0.366-4.709-2.503-4.709c-1.882,0-3.289,0.413-5.43-0.102
	c-2.152-0.518-4.075,0.083-5.65-1.92c-0.782-0.997-1.146-2.439-2.158-3.277c-2.133-1.764-4.627-1.586-7.308-2.078
	c-3.304-0.606-5.413-2.937-8.953-3.119c-3.377-0.174-6.872,1.113-10.208,1.43c-4.335,0.41-8.675,0.152-12.998,0.77
	c-1.01,0.145-1.748,0.543-2.617,0.977c-2.714,1.354-4.782,1.664-7.691,1.375c-1.51-0.149-5.889-1.334-7.116,0.117
	c-0.262,0.311-0.694,0.704-0.839,1.119c-0.845,2.398-2.378,2.047-3.976,3.473c-2.799,2.501-4.261,5.533-5.933,8.779
	c-1.363,2.646-3.608,4.579-4.728,7.344c-0.964,2.378-1.134,4.588-3.074,6.576c-0.983,1.006-2.16,1.679-3.058,2.783
	c-1.437,1.767-1.108,4.451-1.076,6.503c0.042,2.637,0.091,5.154-0.433,7.766c-0.279,1.388-3.183,2.772-4.232,3.964
	c-0.354,0.4-0.473,1.062,0,1.449c1.56,1.276,1.127,2.662,1.033,4.234c-0.043,0.704,0.715,1.109,1.36,0.988
	c2.661-0.509,4.685,1.506,6.765,2.516c1.037,0.502,2.174,0.679,3.3,0.94c-2.37,1.125-4.921,1.834-7.232,3.119
	c-0.942,0.523-0.513,1.884,0.542,1.91c0.874,0.022,4.11-0.46,4.11,0.654c0,1.057,0.446,1.758,0.945,2.652
	c0.393,0.702,1.197,1.102,1.885,1.465c2.548,1.345,3.04,3.228,2.617,5.848c-0.225,1.387-0.09,3.955,1.263,4.853
	c1.78,1.18,1.178,4.382,3.275,5.879c0.36,0.255,0.714,0.241,0.994,0.078c0.49-0.055,0.962-0.368,1.008-0.964
	c0.579-7.46-1.128-14.988,0.925-22.32c1.679-5.994,7.777-5.62,12.675-4.572c2.849,0.608,5.841-0.942,8.875-0.496
	c1.718,0.25,3.904,1.039,5.86,0.972c1.932,0.2,3.723-0.125,5.324-1.298c1.443-0.18,2.893-0.083,4.62,0.337
	c4.116,1.004,4.429-1.326,5.417-3.788c2.753,1.775,5.876,3.881,9.298,2.195c2.147-1.057,2.162-2.646,1.722-4.411
	c0.201-0.086,0.427-0.206,0.731-0.378c3.153-1.779,3.917-1.392,7.037-1.399c2.437-0.005,3.533-0.563,5.926,0.872
	c2.681,1.608,3.281,5.513,4.069,8.185c1.883,6.383,2.339,13.378,2.171,19.987c-0.046,1.842-1.107,6.416,1.745,7.164
	c2.065,0.541,5.569-0.907,6.662-2.659c0.49-0.788,1.427-2.076,1.072-3.071c-0.866-2.433-0.195-3.801,0.29-6.229
	c0.414-2.072,1.349-3.358,1.191-5.477c-0.217-2.882-1.958-5.55,2.077-7.17c2.542-1.019,4.556-2.079,5.108-4.824
	C115.117,59.535,114.667,59.004,113.938,58.936z"/>
<path fill="#377F95" d="M51.414,67.953c-1.319-3.917-8.064-4.368-11.633-4.297c-2.843,0.059-6.142,1.59-8.679,2.671
	c-2.12,0.904-2.846,2.404-3.717,4.381c-0.137,0.312,0.021,0.782,0.276,0.998c0.261,0.222,0.482,0.368,0.794,0.526
	c0.161,0.081,0.317,0.118,0.468,0.126c0.272,0.296,0.735,0.448,1.13,0.345c2.936-0.772,5.171-2.669,7.988-3.69
	c3.88-1.408,8.457,1.257,12.622,0.2C51.211,69.076,51.593,68.48,51.414,67.953z"/>
<path fill="#377F95" d="M88.479,66.422c-5.309-3.488-18.846-6.277-22.271,0.919c-0.286,0.602-0.074,1.308,0.643,1.506
	c0.884,0.246,0.884,0.246,1.879,0.225c0.003,0,0.46,0.021,0.718-0.005c2.608-0.265,5.046-1.031,7.576-1.656
	c3.835-0.946,7.165,0.633,10.913,0.923C89.089,68.42,89.282,66.949,88.479,66.422z"/>
</svg>
