<?xml version="1.0" encoding="utf-8"?>
<!-- Generator: Adobe Illustrator 16.0.0, SVG Export Plug-In . SVG Version: 6.00 Build 0)  -->
<!DOCTYPE svg PUBLIC "-//W3C//DTD SVG 1.1//EN" "http://www.w3.org/Graphics/SVG/1.1/DTD/svg11.dtd">
<svg version="1.1" xmlns="http://www.w3.org/2000/svg" xmlns:xlink="http://www.w3.org/1999/xlink" x="0px" y="0px" width="115px"
	 height="90px" viewBox="0 0 115 90" preserveAspectRatio="xMidyMid meet" enable-background="new 0 0 115 90" xml:space="preserve">
<g id="Layer_1" display="none">
	<path display="inline" fill="#377F95" d="M106.577,57.517c-5.456-0.527-4.001-6.077-4.14-9.732
		c-0.028-0.764-0.109-3.408,0.219-5.59c0.274-0.609,0.438-1.264,0.489-1.959c0.293-0.712,0.697-1.177,1.254-1.188
		c0.567-0.01,0.933-0.48,0.916-0.96c0.004-0.04,0.021-0.073,0.019-0.116c-0.17-3.609-3.764-5.021-5.288-7.739
		c-0.011-0.526-0.03-1.038-0.104-1.506c-0.136-0.861-0.968-1.829-1.516-2.471c-2.184-2.56-1.436-4.956-1.465-7.924
		c-0.008-0.726-1.064-1.305-1.596-0.646c-0.229,0.284-0.442,0.58-0.654,0.879c0.039-2.002-0.318-4.196-2.176-4.196
		c-1.637,0-2.86,0.367-4.722-0.091c-1.872-0.461-3.544,0.075-4.913-1.71c-0.681-0.889-0.996-2.174-1.877-2.92
		C79.169,8.074,77,8.231,74.669,7.793c-2.873-0.541-4.707-2.617-7.785-2.779c-2.937-0.155-5.976,0.992-8.876,1.273
		c-3.77,0.366-7.543,0.136-11.302,0.687c-0.878,0.128-1.52,0.483-2.275,0.87c-2.36,1.207-4.158,1.483-6.688,1.226
		c-1.313-0.133-5.121-1.189-6.188,0.104c-0.228,0.277-0.604,0.627-0.73,0.998c-0.735,2.137-2.068,1.823-3.458,3.095
		c-2.434,2.228-3.705,4.93-5.159,7.823c-1.186,2.358-3.138,4.08-4.111,6.544c-0.838,2.119-0.986,4.088-2.673,5.859
		c-0.855,0.897-1.878,1.497-2.659,2.48c-1.25,1.574-0.964,3.966-0.936,5.795c0.037,2.35,0.079,4.593-0.377,6.92
		c-0.243,1.237-2.767,2.471-3.68,3.532c-0.308,0.356-0.411,0.947,0,1.292c1.356,1.137,0.98,2.371,0.898,3.772
		c-0.038,0.629,0.622,0.989,1.183,0.881c2.313-0.453,4.073,1.343,5.882,2.242c0.901,0.448,1.891,0.604,2.869,0.838
		c-2.061,1.002-4.279,1.634-6.289,2.779c-0.819,0.467-0.446,1.679,0.472,1.702c0.76,0.02,3.574-0.41,3.574,0.583
		c0,0.941,0.388,1.565,0.822,2.363c0.341,0.626,1.041,0.981,1.639,1.305c2.216,1.199,2.643,2.877,2.275,5.211
		c-0.195,1.236-0.079,3.525,1.099,4.325c1.548,1.051,1.024,3.903,2.848,5.237c0.313,0.229,0.621,0.216,0.864,0.07
		c0.426-0.048,0.837-0.327,0.877-0.859c0.503-6.646-0.981-13.355,0.804-19.889c1.46-5.341,6.763-5.008,11.022-4.075
		c2.477,0.543,5.079-0.839,7.717-0.441c1.494,0.224,3.395,0.926,5.096,0.866c1.68,0.179,3.237-0.111,4.629-1.156
		c1.255-0.16,2.516-0.074,4.018,0.3c3.579,0.895,3.852-1.182,4.711-3.376c2.394,1.583,5.109,3.459,8.085,1.957
		c1.867-0.942,1.88-2.358,1.497-3.931c0.175-0.077,0.371-0.184,0.636-0.337c2.742-1.585,3.406-1.24,6.119-1.247
		c2.119-0.005,3.072-0.502,5.153,0.776c2.331,1.435,2.853,4.913,3.538,7.294c1.638,5.688,2.034,11.921,1.888,17.81
		c-0.04,1.643-0.963,5.718,1.518,6.385c1.796,0.482,4.843-0.809,5.793-2.37c0.427-0.702,1.241-1.85,0.933-2.736
		c-0.753-2.168-0.17-3.388,0.252-5.55c0.36-1.847,1.173-2.994,1.036-4.881c-0.188-2.567-1.702-4.945,1.807-6.389
		c2.21-0.907,3.961-1.853,4.441-4.299C107.602,58.051,107.211,57.578,106.577,57.517z"/>
	<path display="inline" fill="#377F95" d="M52.208,65.553c-1.147-3.49-7.013-3.893-10.116-3.829
		c-2.472,0.052-5.341,1.417-7.547,2.381c-1.844,0.806-2.475,2.142-3.232,3.903c-0.12,0.277,0.019,0.696,0.24,0.889
		c0.227,0.197,0.419,0.328,0.691,0.469c0.14,0.073,0.275,0.105,0.407,0.112c0.237,0.265,0.639,0.4,0.983,0.308
		c2.553-0.688,4.496-2.379,6.946-3.288c3.374-1.255,7.354,1.119,10.975,0.179C52.032,66.553,52.364,66.022,52.208,65.553z"/>
	<path display="inline" fill="#377F95" d="M84.438,64.188c-4.616-3.108-16.388-5.594-19.366,0.818
		c-0.249,0.536-0.064,1.165,0.559,1.343c0.769,0.218,0.769,0.218,1.634,0.199c0.003,0,0.4,0.019,0.624-0.004
		c2.269-0.236,4.388-0.92,6.588-1.477c3.335-0.843,6.23,0.564,9.49,0.822C84.97,65.969,85.137,64.658,84.438,64.188z"/>
</g>
<g id="Layer_2">
	<path fill="#C94434" d="M32.722,1.596c-0.188-0.193-0.287-0.401-0.346-0.608c-3.643-0.354-7.227,1.128-10.909,0.525
		c-0.009-0.001-0.018-0.004-0.029-0.008c-1.828,1.532-3.289,3.507-4.918,5.255c0.102,0.986,0.186,1.97,0.205,2.963
		c0.062,0.041,0.131,0.056,0.194,0.112c2.72,2.422,6.763,4.513,8.437,7.947c0.211,0.434,0.192,0.846,0.045,1.193
		c0.19,2.465-0.278,4.96,0.095,7.411c0.005,0.04,0.002,0.08,0.005,0.12c0.348,0.822-0.041,2.053-1.183,2.128
		c-2.362,0.156-4.77,0.172-7.091-0.349c-0.721-0.16-1.014-0.733-0.994-1.317c-3.037-2.043-5.23-5.16-8.135-7.385
		c-0.104-0.079-0.164-0.178-0.238-0.272c-0.958,0.097-1.917-0.02-2.856-0.229c-1.632,1.59-2.989,3.437-4.682,4.959
		c0.415,3.965,0.151,7.946-0.291,11.895c0,0.003,0,0.003-0.001,0.004c3.573,3.333,7.57,6.416,10.211,10.654
		c0.001-0.004,0.004-0.004,0.009-0.004c5.146-0.207,10.678-1.136,15.74,0.191c0.652,0.172,0.953,0.677,0.984,1.212
		c0.367-0.062,0.757,0.026,1.104,0.383c2.518,2.598,39.028,37.719,36.638,40.217c0.476-0.498,1.045-0.51,1.507-0.268
		c3.927,0.035,7.837,0.524,11.763,0.591c2.008-1.642,3.648-3.86,5.125-5.998c0.188-0.271,0.429-0.42,0.681-0.512
		c0.877-3.774,0.196-7.814,0.018-11.629c-0.005-0.046,0.015-0.081,0.017-0.119c-0.121-0.07-0.239-0.132-0.354-0.252
		C71.613,57.794,56.046,42.325,44.46,29.43c-0.273-0.305-0.37-0.646-0.365-0.976c-0.124-0.154-0.228-0.343-0.285-0.59
		c-1.128-4.934,1.65-9.898,0.436-14.839c-0.09-0.368-0.027-0.675,0.097-0.938c-0.262-0.036-0.53-0.142-0.77-0.402
		C40.235,7.999,36.206,5.121,32.722,1.596z"/>
</g>
<g id="Layer_3">
	<path fill="#377F95" d="M114.541,35.149c-0.355-0.493-0.711-0.982-1.062-1.477c-0.762-1.073-1.525-2.135-2.372-3.136
		c-0.435-0.517-0.834-1.068-1.228-1.622c-0.031-0.013-0.06-0.031-0.093-0.044c-0.135,0.064-0.269,0.135-0.404,0.231
		c-0.274,0.197-0.538,0.403-0.8,0.61c-0.701,1.457-2.291,2.704-3.927,2.034c-1.779-0.727-2.779-2.179-2.894-4.159
		c1.253-5.195,1.892-12.773-3.118-15.386c-0.673-0.638-1.349-1.278-2.026-1.913c-2.965-1.778-5.376-4.365-8.714-5.676
		c-4.265-1.672-8.878-2.442-13.338-3.276c-1.323-0.247-2.718-0.483-4.149-0.698c-4.025-0.084-8.051-0.168-12.076-0.18
		C57.533,0.456,56.829,0.289,56.226,0c-0.908,0.019-1.816,0.055-2.724,0.121c-0.312-0.03-0.623-0.05-0.935-0.068
		c-1.557,0.207-3.063,0.504-4.49,0.915c-0.902,0.262-1.726,0.265-2.46,0.086c-0.317,0.137-0.631,0.286-0.939,0.456
		c-1.854,1.021-1.491,4.27,0.594,4.732c0.101,0.022,0.202,0.036,0.303,0.056c0.546,0.613,1.354,0.987,2.341,0.806
		c0.638-0.117,1.28-0.164,1.922-0.18c1.011,0.102,2.024,0.189,3.035,0.279c0.121,0.025,0.239,0.065,0.359,0.094
		c4.114-0.644,8.81,0.645,11.923,3.6c1.392,0.676,2.637,1.686,3.605,2.906c1.725,2.177,2.384,4.396,2.226,6.734
		c0.183,0.671,0.306,1.393,0.338,2.186c0.031,0.785-0.188,1.519-0.554,2.164c-0.285,2.172-2.053,3.635-4.146,3.781
		c-1.315,0.092-2.653,0.322-3.967,0.662l-0.246,0.583c-0.509,0.028-1.034,0.222-1.512,0.652c-1.29,1.157-2.424,2.465-3.524,3.804
		c-0.058,0.196-0.104,0.39-0.187,0.588c-2.621,6.124-8.02,11.034-12.627,15.556c-1.698,1.668-12.784,13.006-14.563,14.578
		c-3.004,3.797-6.274,7.371-9.188,11.24c-0.107,1.312-0.243,2.624-0.398,3.932c0.576,0.771,0.942,1.743,1.066,2.807
		c-0.105-0.902-0.014-0.505,0.083-0.098c0.083,0.18,0.239,0.553,0.312,0.685c0.102,0.189,0.214,0.371,0.323,0.555
		c0.537,0.465,1.067,0.933,1.575,1.415c0.104,0.098,0.212,0.208,0.318,0.308c1.516,1.208,3.019,2.433,4.6,3.543
		c1.014,0.082,2.032,0.142,3.06,0.146c1.872,0.008,4.06,0.134,6.086-0.107c0.344-0.386,0.731-0.74,1.173-1.098
		c-0.275,0.224-0.551,0.448-0.829,0.672c1.006-0.836,1.965-1.72,2.98-2.545c1.437-1.812,3.685-3.27,5.085-4.816
		c1.908-2.102,12.783-14.268,14.515-16.524c0.644-0.09,1.27-0.432,1.736-1.116c2.184-3.209,5.347-5.497,7.442-8.809
		c0.103-0.163,0.181-0.325,0.244-0.486c2.399-2.73,4.794-5.474,6.816-8.529c0.769-0.75,1.512-1.524,2.194-2.353
		c0.371-2.271,0.68-4.55,0.87-6.85c0.183-0.325,0.368-0.645,0.577-0.95c1.291-1.88,3.031-2.318,4.882-2.571
		c2.021,0.531,4.164,0.731,6.414,0.74c0.938,0.818,1.759,1.741,2.516,2.792c0.52,0.722,0.785,1.56,0.923,2.435
		c0.014,0.035,0.029,0.066,0.041,0.102c0.049,0.057,0.084,0.124,0.127,0.186c-0.807,1.027-1.521,2.119-1.923,3.312
		c-0.027,0.03-0.049,0.062-0.074,0.093c1.316,2.094,2.853,4.016,4.448,5.884c0.634-0.098,1.289-0.072,1.943,0.07
		c4.319-3.613,9.026-6.746,13.386-10.295c0.182-0.217,0.368-0.429,0.541-0.653c0.584-0.754,0.722-1.333,0.66-2.796
		C114.52,35.32,114.54,35.237,114.541,35.149z"/>
</g>
</svg>
