<?xml version="1.0" encoding="utf-8"?>
<!-- Generator: Adobe Illustrator 16.0.0, SVG Export Plug-In . SVG Version: 6.00 Build 0)  -->
<!DOCTYPE svg PUBLIC "-//W3C//DTD SVG 1.1//EN" "http://www.w3.org/Graphics/SVG/1.1/DTD/svg11.dtd">
<svg version="1.1" id="Layer_1" xmlns="http://www.w3.org/2000/svg" xmlns:xlink="http://www.w3.org/1999/xlink" x="0px" y="0px"
	 width="130px" height="129.999px" viewBox="0 0 130 129.999" preserveAspectRatio="xMidyMid meet" enable-background="new 0 0 130 129.999" xml:space="preserve">
<g>
	<path fill="#C94534" d="M45.924,28.883c-2.933-3.332-7.911-2.907-11.859-2.59c-0.425,0.035-0.793,0.151-1.111,0.324
		c-4.596,1.013-8.215,4.001-8.354,9.225c-0.138,5.21,3.808,9.617,8.425,11.397c6.324,2.437,13.743-1.264,15.442-7.72
		C49.456,35.759,48.453,31.756,45.924,28.883z M43.222,38.854c-0.955,3.632-6.045,4.579-9.106,3.209
		c-2.262-1.012-4.048-3.293-4.261-5.793c-0.263-3.136,2.437-4.489,5.193-4.736c0.168-0.015,0.294-0.092,0.447-0.132
		c2.024-0.193,4.159-0.343,5.971,0.593C43.857,33.229,43.8,36.654,43.222,38.854z"/>
</g>
<g>
	<path fill="#C94534" d="M47.496,53.482c-0.046-0.481-0.21-0.874-0.43-1.217c0.046-1.345-0.783-2.722-2.518-2.714
		c-5.139,0.021-10.278,0.275-15.396-0.328c-1.295-0.152-2.07,0.54-2.359,1.464c-0.707,0.396-1.244,1.083-1.244,2.139
		c-0.021,14.213-0.213,28.41,0.982,42.585c0.023,0.271,0.124,0.377,0.205,0.604c-1.42,1.422-0.85,4.424,1.76,4.424h14.741
		c1.761,0,2.58-1.477,2.508-2.836c1.208-0.1,2.262-0.924,2.078-2.49C46.204,81.252,48.783,67.36,47.496,53.482z M31.772,95.439
		c-1.146-13-1.019-27.207-0.987-40.831c3.843,0.325,7.695,0.446,11.549,0.441c1.021,13.445-1.32,26.39,0.248,40.39H31.772z"/>
</g>
<g>
	<path fill="#C94534" d="M104.494,65.602c-0.006-0.726-0.276-1.264-0.66-1.678c-2.672-6.026-5.246-12.938-12.075-15.262
		c-6.996-2.381-13.886-1.267-20.063,2.164c-0.021-0.11-0.027-0.223-0.051-0.333c-0.395-1.729-1.964-2.143-3.267-1.693
		c-0.403-0.321-0.895-0.559-1.555-0.559c-4.154-0.001-8.302-0.032-12.448-0.328c-1.776-0.126-2.585,1.266-2.488,2.649
		c-0.051,0.206-0.13,0.389-0.133,0.627c-0.136,15.463-1.653,30.831,0.419,46.229c0.01,0.062,0.043,0.092,0.057,0.15
		c-0.087,1.365,0.727,2.895,2.472,3.085c4.668,0.51,9.403-0.23,14.046,0.562c0.678,0.115,1.248-0.046,1.745-0.317
		c1.008-0.068,1.93-0.63,2.134-1.842c0.218-1.311,0.435-2.622,0.655-3.932c0.139-0.834-0.082-1.545-0.491-2.091
		c0.071-8.597-0.241-17.18-0.998-25.747c3.588-3.991,8.281-0.789,10.892,3.231c0.453,8.734-0.532,17.492,0.517,26.203
		c0.088,0.725,0.431,1.265,0.873,1.675c-0.294,1.507,0.477,3.142,2.403,2.912c4.616-0.551,9.161-0.364,13.718,0.562
		c1.678,0.338,2.854-0.804,3.183-2.099c0.973-0.287,1.777-1.072,1.771-2.396C105.101,86.783,104.541,76.197,104.494,65.602z
		 M88.371,95.926c-0.98-9.213,0.197-18.472-0.583-27.702c-0.113-1.332-1.013-2.113-2.035-2.387c-2.137-2.661-4.891-4.782-8.289-5.59
		c-4.225-1.003-7.754,1.229-10.226,4.392c-0.221,0.182-0.388,0.417-0.518,0.689c-0.062,0.089-0.133,0.171-0.194,0.261
		c-0.717,1.057-0.517,2.088,0.107,2.813c0.767,9.136,1.046,18.288,0.877,27.452c-3.438-0.294-6.884-0.141-10.331-0.294
		c-1.822-14.05-0.471-28.188-0.225-42.292c3.276,0.155,6.554,0.211,9.834,0.213c0.019,0.324,0.034,0.646,0.034,0.982
		c0,0.777,0.298,1.354,0.728,1.773c0.564,1.341,2.031,2.229,3.544,1.145c6.07-4.351,13.23-6.553,20.316-3.122
		c4.277,2.072,6.066,7.951,7.853,12.176c0.07,10.033,0.56,20.06,0.632,30.091C96.071,95.88,92.235,95.643,88.371,95.926z"/>
</g>
<g>
	<path fill="#C94534" d="M65,129.999c-35.841,0-65-29.159-65-65C0,29.158,29.16,0,65,0c35.842,0,65,29.158,65,65
		C130,100.84,100.843,129.999,65,129.999z M65,5.241C32.048,5.241,5.241,32.048,5.241,65c0,32.952,26.807,59.758,59.759,59.758
		c32.95,0,59.757-26.807,59.757-59.758C124.758,32.048,97.95,5.241,65,5.241z"/>
</g>
</svg>
