<?xml version="1.0" encoding="utf-8"?>
<!-- Generator: Adobe Illustrator 16.0.0, SVG Export Plug-In . SVG Version: 6.00 Build 0)  -->
<!DOCTYPE svg PUBLIC "-//W3C//DTD SVG 1.1//EN" "http://www.w3.org/Graphics/SVG/1.1/DTD/svg11.dtd">
<svg version="1.1" id="Layer_1" xmlns="http://www.w3.org/2000/svg" xmlns:xlink="http://www.w3.org/1999/xlink" x="0px" y="0px"
	 width="130px" height="129.999px" viewBox="0 0 130 129.999" preserveAspectRatio="xMidyMid meet" enable-background="new 0 0 130 129.999" xml:space="preserve">
<g>
	<path fill="#C94534" d="M90.257,80.978c-0.432-0.071-0.83-0.033-1.19,0.068c-0.3-0.112-0.638-0.181-1.027-0.165
		c-8.517,0.363-17.035,1.14-25.525,0.347c0.066-3.938,0.246-7.268,0.307-11.268h22.93c1.009,0,1.679-0.975,2.087-1.631
		c12.471,0.748,17.393-16.99,6.477-23.001c-0.01-0.005-0.021-0.138-0.027-0.143c-0.413-0.635-1.073-1.174-2.059-1.181
		c-10.533-0.078-21.04-0.914-31.568-1.111c-0.138-1.456-0.238-2.932-0.379-4.388c0.333-0.386,0.599-0.855,0.668-1.462
		c1.758-15.278-23.493-15.124-24.976-1.23c-0.542,0.415-0.906,1.058-0.834,1.987c1.292,16.282,0.501,24.761,0.394,41.063
		c-0.243,0.381-0.394,0.827-0.394,1.411c0,12.193,14.157,24.167,23.281,24.896c0.837,0.066,1.461-0.208,1.878-0.66
		c10.4,0.895,16.927,0.686,27.357,0.66c0.557,0,0.985-0.178,1.359-0.416c0.271,0.013,0.548,0.025,0.859-0.061
		c5.701-1.585,9.961-5.097,10.304-11.286C100.5,87.688,95.854,81.846,90.257,80.978z M88.485,99.64
		c-0.257,0.073-0.436,0.208-0.638,0.324c-0.068-0.005-0.118-0.038-0.19-0.038c-10.931,0.025-17.957,0.292-28.854-0.762
		c-0.791-0.076-1.377,0.171-1.794,0.577c-5.597-0.971-16.535-9.601-16.535-18.66c0.171-0.338,0.286-0.724,0.291-1.19
		c0.078-16.188,0.873-24.548-0.294-40.711c0.412-0.417,0.694-0.99,0.673-1.763C40.945,29.319,55,27.955,55.717,35.563
		c-0.522,0.479-0.865,1.136-0.769,1.853c0.308,2.321,0.397,4.66,0.645,6.984c-0.555,1.536,0.226,3.621,2.355,3.637
		c11.081,0.082,22.135,0.983,33.213,1.115c0.159,0.148,0.287,0.31,0.508,0.431c6.568,3.621,3.336,13.673-4.012,13.125
		c-1.087-0.081-1.779,1.252-2.164,1.252H58.961c-2.024,0-2.467,2.942-1.364,4.366c-0.051,4.733-0.337,9.382-0.365,14.114
		c-0.005,0.911,0.386,1.518,0.938,1.937c0.402,0.711,1.065,1.268,2.066,1.385c9.241,1.084,18.526,0.767,27.803,0.371
		c0.245-0.011,0.44-0.105,0.65-0.167c0.067,0.016,0.108,0.055,0.177,0.064c3.726,0.58,5.883,3.726,6.073,7.377
		C95.134,97.114,91.471,98.809,88.485,99.64z"/>
</g>
<g>
	<path fill="#C94534" d="M65.001,129.999C29.16,129.999,0,100.84,0,64.999C0,29.159,29.16,0,65.001,0
		C100.843,0,130,29.159,130,64.999C130,100.84,100.843,129.999,65.001,129.999z M65.001,5.241c-32.953,0-59.76,26.808-59.76,59.758
		c0,32.952,26.808,59.759,59.76,59.759c32.949,0,59.756-26.807,59.756-59.759C124.758,32.049,97.95,5.241,65.001,5.241z"/>
</g>
</svg>
