<?xml version="1.0" encoding="utf-8"?>
<!-- Generator: Adobe Illustrator 16.0.0, SVG Export Plug-In . SVG Version: 6.00 Build 0)  -->
<!DOCTYPE svg PUBLIC "-//W3C//DTD SVG 1.1//EN" "http://www.w3.org/Graphics/SVG/1.1/DTD/svg11.dtd">
<svg version="1.1" id="Layer_1" xmlns="http://www.w3.org/2000/svg" xmlns:xlink="http://www.w3.org/1999/xlink" x="0px" y="0px"
	 width="130px" height="130px" viewBox="0 0 130 130" preserveAspectRatio="xMidyMid meet" enable-background="new 0 0 130 130" xml:space="preserve">
<g>
	<path fill="#C94534" d="M108.2,41.919c0.939-1.539,0.267-4.077-2.095-4.084c-27.315-0.084-54.619-1.299-81.932-0.361
		c-2.577,0.088-3.172,3.159-1.806,4.555c1.471,18.026-1.988,36.038,1.085,53.984c0.235,1.371,1.234,1.904,2.285,1.86
		c0.087,0.011,0.148,0.059,0.241,0.063c13.496,0.736,26.981,0.587,40.491,0.427c13.435-0.162,26.985,1.077,40.356-0.427
		c1.109-0.124,1.815-0.81,2.188-1.627c0.652-0.409,1.143-1.077,1.155-2.08C110.365,76.756,113.037,58.987,108.2,41.919z
		 M105.019,90.91c-9.68-9.091-17.286-20.143-27.531-28.662c8.107-6.456,17.268-12.035,26.343-16.297
		C107.299,60.655,105.439,75.89,105.019,90.91z M97.97,42.995c-11.799,5.923-23.469,13.916-32.758,23.133
		c-8.782-9.703-19.333-17.33-30.729-23.637C55.644,42.139,76.804,42.787,97.97,42.995z M27.755,44.845
		c9.622,4.996,18.7,10.813,26.71,17.984c-10.752,6.132-18.534,15.984-26.77,25.043C26.458,73.578,28.512,59.195,27.755,44.845z
		 M71.508,93.075c-13.771,0.054-27.516,0.328-41.269-0.235c8.384-9.098,16.11-19.409,27.02-25.576
		c0.438-0.249,0.72-0.569,0.927-0.915c1.564,1.556,3.095,3.151,4.558,4.834c0.955,1.097,2.161,1.003,3.072,0.373
		c0.695,0.102,1.432-0.076,2.076-0.733c1.752-1.79,3.631-3.512,5.563-5.202c0.048,0.047,0.061,0.101,0.117,0.146
		c9.828,8.112,17.217,18.563,26.279,27.435C90.416,93.636,80.961,93.037,71.508,93.075z"/>
</g>
<g>
	<path fill="#C94534" d="M65,130c-35.841,0-65-29.158-65-65S29.159,0,65,0c35.843,0,65,29.159,65,65S100.844,130,65,130z M65,5.242
		C32.048,5.242,5.241,32.049,5.241,65c0,32.952,26.808,59.76,59.76,59.76c32.952,0,59.759-26.808,59.759-59.76
		C124.76,32.049,97.952,5.242,65,5.242z"/>
</g>
</svg>
