<?xml version="1.0" encoding="utf-8"?>
<!-- Generator: Adobe Illustrator 16.0.0, SVG Export Plug-In . SVG Version: 6.00 Build 0)  -->
<!DOCTYPE svg PUBLIC "-//W3C//DTD SVG 1.1//EN" "http://www.w3.org/Graphics/SVG/1.1/DTD/svg11.dtd">
<svg version="1.1" id="Layer_1" xmlns="http://www.w3.org/2000/svg" xmlns:xlink="http://www.w3.org/1999/xlink" x="0px" y="0px"
	 width="130px" height="129.999px" viewBox="0 0 130 129.999" preserveAspectRatio="xMidyMid meet" enable-background="new 0 0 130 129.999" xml:space="preserve">
<g>
	<path fill="#C94534" d="M88.115,48.241c-0.002-0.581-0.195-1.025-0.453-1.405c0.116-1.39-0.699-2.863-2.494-2.854
		c-3.786,0.019-7.569,0.181-11.354,0.264c0.088-0.931,0.144-1.863,0.141-2.812c-0.002-1.34-0.161-2.925,0.259-4.251
		c2.626-0.623,5.256-0.733,8.006-0.736c1.929-0.001,2.72-1.706,2.442-3.173c0.254-0.294,0.443-0.637,0.443-1.085
		c0.003-5.241-0.03-8.669,0.606-12.823c0.207-1.363-0.539-2.417-1.512-2.988c-0.226-1.044-1.003-1.897-2.412-1.772
		c-7.465,0.665-21.678-1.596-27.597,4.324c-5.814,5.812-4.627,17.979-4.594,25.864c-3.759,0.529-6.77,0.542-9.39,0.543
		c-0.558,0-1.029,0.085-1.466,0.192c-1.485-0.33-3.271,0.456-3.289,2.429c-0.046,5.754-0.218,11.159-0.279,16.914
		c-2.075,1.096-1.682,4.608,1.215,4.608h10.307c0,0,0-0.58,0-0.57c2,14.176-0.519,28.581,2.36,42.603
		c0.176,0.859,0.738,1.062,1.326,1.333c0.419,0.563,1.155,0.635,2.071,0.635h16.99c0.647,0,1.131-0.348,1.459-0.829
		c1.177-0.134,2.229-0.944,2.144-2.485c-0.751-13.748,0.426-27.459,0.625-41.201c3.275,0.11,6.567,0.031,9.817,0.48
		c1.284,0.173,2.272-0.488,2.817-1.385c1.132-0.182,2.143-0.975,2.138-2.457C88.42,59.814,88.141,54.03,88.115,48.241z
		 M71.736,63.637c-1.344-0.089-2.124,0.696-2.395,1.678c-0.518,0.422-0.873,1.206-0.881,2.071
		c-0.112,13.664-1.3,27.094-0.729,41.094H54.083c-2.426-13-0.63-26.506-1.802-39.777c-0.015-0.166-0.092-0.265-0.13-0.418
		c1.471-1.201,1.139-4.805-1.052-4.805H40.427c0.064-3,0.039-8.836,0.195-13.611c2.774-0.011,6.692,0.21,10.897-0.437
		c1.584-0.242,1.883-1.332,1.632-2.541c0.839-0.273,1.413-0.763,1.413-1.686c0.005-7.862-0.568-15.893,3.161-22.304
		c1.62-2.787,10.589-2.554,13.208-2.678c3.157-0.151,6.31-0.094,9.469-0.284c-0.409,3.615-0.515,7.28-0.529,11.305
		c-2.998,0.086-5.951,0.384-8.833,1.366c-1.45,0.495-1.919,1.811-1.735,3c-0.778,2.956-0.234,5.917-0.753,8.986
		c-0.086,0.521,0,0.973,0.152,1.389c-0.525,1.538,0.269,3.577,2.377,3.566c3.938-0.018,7.872-0.196,11.812-0.274
		c0.043,4.979,0.232,9.957,0.283,14.937C79.368,63.842,75.56,63.89,71.736,63.637z"/>
</g>
<g>
	<path fill="#C94534" d="M65,129.999c-35.841,0-65-29.159-65-65C0,29.158,29.16,0,65,0c35.84,0,65,29.158,65,65
		C130,100.84,100.841,129.999,65,129.999z M65,5.241C32.048,5.241,5.241,32.048,5.241,65c0,32.952,26.807,59.758,59.759,59.758
		c32.95,0,59.757-26.807,59.757-59.758C124.758,32.048,97.95,5.241,65,5.241z"/>
</g>
</svg>
