<?xml version="1.0" encoding="utf-8"?>
<!-- Generator: Adobe Illustrator 16.0.0, SVG Export Plug-In . SVG Version: 6.00 Build 0)  -->
<!DOCTYPE svg PUBLIC "-//W3C//DTD SVG 1.1//EN" "http://www.w3.org/Graphics/SVG/1.1/DTD/svg11.dtd">
<svg version="1.1" id="Layer_1" xmlns="http://www.w3.org/2000/svg" xmlns:xlink="http://www.w3.org/1999/xlink" x="0px" y="0px"
	 width="130px" height="130px" viewBox="0 0 130 130" preserveAspectRatio="xMidyMid meet" enable-background="new 0 0 130 130" xml:space="preserve">
<g>
	<path fill="#C94534" d="M65,130c-35.841,0-65-29.158-65-65C0,29.159,29.159,0,65,0c35.843,0,65,29.159,65,64.999
		C130,100.841,100.844,130,65,130z M65,5.241c-32.952,0-59.76,26.808-59.76,59.758c0,32.953,26.808,59.76,59.76,59.76
		c32.952,0,59.759-26.808,59.759-59.76C124.76,32.049,97.952,5.241,65,5.241z"/>
</g>
<g>
	<path fill="#C94534" d="M25.125,60.425l-1.87,5.082c-0.771-0.732-1.552-1.098-2.34-1.098c-0.711,0-1.328,0.242-1.85,0.724
		c-0.521,0.483-1.022,1.378-1.498,2.681v6.167h-5.066v-14.33h5.066v3.463c0.317-0.854,0.881-1.687,1.69-2.498
		c0.806-0.812,1.753-1.218,2.84-1.218c0.574,0,1.073,0.084,1.501,0.253C24.025,59.82,24.535,60.079,25.125,60.425z"/>
	<path fill="#C94534" d="M40.2,68.039H30.108c0.197,0.876,0.681,1.587,1.451,2.141c0.768,0.555,1.64,0.831,2.615,0.831
		c1.71,0,3.597-0.479,5.661-1.436v3.137c-0.742,0.388-1.641,0.738-2.697,1.051c-1.055,0.314-2.4,0.471-4.033,0.471
		c-1.763,0-3.267-0.328-4.504-0.982c-1.239-0.658-2.166-1.552-2.779-2.678c-0.615-1.126-0.922-2.4-0.922-3.829
		c0-1.406,0.307-2.665,0.922-3.778c0.613-1.111,1.54-1.984,2.779-2.619c1.238-0.631,2.741-0.949,4.504-0.949
		c1.164,0,2.288,0.25,3.373,0.752c1.082,0.503,1.976,1.323,2.674,2.465c0.7,1.139,1.047,2.61,1.047,4.41V68.039z M35.444,65.535
		c0-0.92-0.227-1.653-0.683-2.204c-0.456-0.547-1.111-0.822-1.962-0.822c-0.844,0-1.529,0.279-2.05,0.838
		c-0.52,0.559-0.781,1.287-0.781,2.188H35.444z"/>
	<path fill="#C94534" d="M53.895,69.799c0,1.315-0.479,2.381-1.441,3.204c-0.962,0.819-2.391,1.229-4.287,1.229
		c-1.059,0-2.003-0.096-2.83-0.287c-0.824-0.194-1.726-0.466-2.703-0.824v-3.603c0.854,0.486,1.597,0.859,2.227,1.109
		c0.627,0.257,1.317,0.382,2.066,0.382c1.267,0,1.899-0.345,1.899-1.042c0-0.234-0.089-0.444-0.274-0.624
		c-0.181-0.185-0.5-0.392-0.956-0.619c-0.456-0.23-1.063-0.506-1.823-0.823c-0.938-0.415-1.735-0.968-2.393-1.664
		c-0.658-0.694-0.985-1.543-0.985-2.547c0-0.713,0.219-1.398,0.655-2.056c0.436-0.656,1.096-1.194,1.979-1.611
		c0.88-0.418,1.945-0.626,3.193-0.626c0.3,0,0.685,0.02,1.148,0.063c0.464,0.041,1.051,0.152,1.759,0.33
		c0.71,0.178,1.383,0.432,2.02,0.76v3.504c-0.3-0.178-0.55-0.329-0.753-0.45c-0.202-0.122-0.472-0.259-0.811-0.408
		c-0.338-0.15-0.731-0.285-1.187-0.402c-0.456-0.117-0.922-0.175-1.403-0.175c-0.58,0-0.98,0.112-1.195,0.338
		c-0.216,0.225-0.325,0.45-0.325,0.675c0,0.234,0.113,0.453,0.337,0.654c0.225,0.203,0.729,0.453,1.507,0.754
		c1.126,0.431,2.028,0.875,2.703,1.328c0.675,0.456,1.156,0.957,1.443,1.499C53.754,68.416,53.895,69.058,53.895,69.799z"/>
	<path fill="#C94534" d="M71.741,73.981H66.66V71.94c-0.713,0.767-1.461,1.346-2.245,1.724c-0.784,0.38-1.723,0.569-2.824,0.569
		c-2.165,0-3.57-0.63-4.207-1.895c-0.638-1.259-0.958-2.685-0.958-4.268v-8.419h5.083v7.445v0.297c0,0.779,0.128,1.458,0.386,2.048
		c0.259,0.586,0.819,0.88,1.682,0.88c0.742,0,1.328-0.213,1.761-0.634c0.43-0.423,0.87-0.963,1.321-1.617v-8.419h5.081V73.981z"/>
	<path fill="#C94534" d="M100.514,73.981h-5.067v-7.644c0-1.014-0.171-1.771-0.503-2.274c-0.333-0.501-0.858-0.752-1.582-0.752
		c-0.706,0-1.282,0.214-1.731,0.64c-0.449,0.427-0.901,0.965-1.351,1.612v8.418h-5.068v-7.644c0-0.966-0.155-1.712-0.462-2.238
		c-0.312-0.526-0.861-0.788-1.648-0.788c-0.378,0-0.721,0.076-1.035,0.225c-0.315,0.15-0.569,0.319-0.768,0.507
		c-0.197,0.188-0.434,0.464-0.716,0.831c-0.281,0.366-0.462,0.596-0.538,0.689v8.418h-5.068v-14.33h5.068v2.055
		c0.762-0.807,1.536-1.393,2.323-1.759c0.79-0.366,1.701-0.548,2.732-0.548c0.487,0,0.952,0.044,1.394,0.132
		c0.439,0.09,0.873,0.242,1.3,0.458s0.815,0.512,1.163,0.887c0.348,0.375,0.625,0.811,0.828,1.309
		c0.819-0.92,1.663-1.614,2.541-2.083c0.879-0.47,1.89-0.703,3.034-0.703c1.146,0,2.105,0.229,2.88,0.689
		c0.774,0.46,1.346,1.124,1.716,1.993c0.371,0.868,0.559,1.921,0.559,3.159V73.981z"/>
	<path fill="#C94534" d="M118.217,68.039h-10.091c0.198,0.876,0.681,1.587,1.452,2.141c0.768,0.555,1.641,0.831,2.615,0.831
		c1.709,0,3.596-0.479,5.66-1.436v3.137c-0.741,0.388-1.641,0.738-2.696,1.051c-1.054,0.314-2.399,0.471-4.035,0.471
		c-1.762,0-3.265-0.328-4.504-0.982c-1.236-0.658-2.163-1.552-2.778-2.678c-0.614-1.126-0.921-2.4-0.921-3.829
		c0-1.406,0.307-2.665,0.921-3.778c0.615-1.111,1.542-1.984,2.778-2.619c1.239-0.631,2.742-0.949,4.504-0.949
		c1.166,0,2.29,0.25,3.375,0.752c1.081,0.503,1.975,1.323,2.673,2.465c0.698,1.139,1.047,2.61,1.047,4.41V68.039z M113.463,65.535
		c0-0.92-0.229-1.653-0.683-2.204c-0.457-0.547-1.112-0.822-1.963-0.822c-0.846,0-1.528,0.279-2.052,0.838
		c-0.518,0.559-0.779,1.287-0.779,2.188H113.463z"/>
</g>
</svg>
