<?xml version="1.0" encoding="utf-8"?>
<!-- Generator: Adobe Illustrator 16.0.0, SVG Export Plug-In . SVG Version: 6.00 Build 0)  -->
<!DOCTYPE svg PUBLIC "-//W3C//DTD SVG 1.1//EN" "http://www.w3.org/Graphics/SVG/1.1/DTD/svg11.dtd">
<svg version="1.1" id="Layer_1" xmlns="http://www.w3.org/2000/svg" xmlns:xlink="http://www.w3.org/1999/xlink" x="0px" y="0px"
	 width="312.5px" height="99.626px" viewBox="0 0 312.5 99.626" preserveAspectRatio="xMidyMid meet" enable-background="new 0 0 312.5 99.626" xml:space="preserve">
<g>
	<path fill="#231F20" d="M132.135,43.252l-1.469,2.372c-1.976-1.805-3.565-2.707-4.768-2.707c-2.371,0-4.903,2.269-7.602,6.805
		v14.895h-2.526V40.907h2.526v6.238h0.103c2.835-4.468,5.601-6.701,8.299-6.701C128.244,40.444,130.057,41.381,132.135,43.252z"/>
	<path fill="#231F20" d="M153.551,60.493v2.114c-2.183,1.648-3.779,2.473-4.793,2.473c-0.584,0-0.988-0.195-1.211-0.58
		c-0.225-0.387-0.388-1.173-0.49-2.357c-2.492,1.957-4.966,2.938-7.423,2.938c-1.785,0-3.298-0.582-4.535-1.753
		c-1.237-1.168-1.854-2.587-1.854-4.253c0-2.575,1.193-4.607,3.581-6.095c2.387-1.485,5.799-2.34,10.231-2.563v-3.015
		c0-3.229-1.753-4.845-5.257-4.845c-2.234,0-4.647,1.006-7.241,3.016v-2.604c2.68-1.683,5.23-2.524,7.653-2.524
		c2.147,0,3.917,0.527,5.308,1.585c1.393,1.055,2.089,2.59,2.089,4.6v14.765c0,0.809,0.188,1.214,0.566,1.214
		C150.654,62.607,151.781,61.9,153.551,60.493z M147.057,59.927v-7.397c-3.247-0.12-5.939,0.45-8.078,1.715
		c-2.141,1.262-3.209,2.871-3.209,4.83c0,1.102,0.445,2.029,1.339,2.783c0.894,0.757,2.011,1.135,3.351,1.135
		C142.624,62.992,144.823,61.971,147.057,59.927z"/>
	<path fill="#231F20" d="M159.658,40.907v4.124h0.105c1.974-3.058,4.577-4.587,7.805-4.587c2.682,0,4.82,0.859,6.418,2.577
		c1.599,1.718,2.396,4.097,2.396,7.139v14.456h-2.523V51.113c0-5.464-2.148-8.196-6.444-8.196c-3.143,0-5.729,1.693-7.756,5.078
		v16.621h-2.524V40.907H159.658z"/>
	<path fill="#231F20" d="M203.442,28.615v36.001h-2.552v-1.855c-2.162,1.547-4.502,2.319-7.009,2.319
		c-3.368,0-6.208-1.189-8.517-3.57c-2.311-2.377-3.466-5.304-3.466-8.773c0-3.522,1.136-6.45,3.414-8.788
		c2.274-2.336,5.131-3.504,8.568-3.504c2.182,0,4.518,0.636,7.009,1.906V28.615H203.442z M200.891,60.441V45.134
		c-2.268-1.477-4.571-2.217-6.906-2.217c-2.732,0-4.984,0.908-6.752,2.721c-1.77,1.812-2.652,4.127-2.652,6.942
		c0,2.869,0.945,5.258,2.832,7.164c1.893,1.908,4.253,2.863,7.088,2.863C196.698,62.607,198.829,61.885,200.891,60.441z"/>
	<path fill="#231F20" d="M240.781,42.455v2.73c-2.407-1.614-4.57-2.423-6.496-2.423c-1.425,0-2.627,0.386-3.607,1.157
		c-0.979,0.771-1.469,1.722-1.469,2.851c0,0.806,0.297,1.547,0.893,2.224c0.597,0.678,2.236,1.534,4.922,2.572
		c2.686,1.037,4.443,2.115,5.268,3.232c0.823,1.114,1.236,2.361,1.236,3.734c0,1.84-0.746,3.392-2.242,4.652
		c-1.494,1.264-3.342,1.895-5.54,1.895c-2.388,0-4.76-0.721-7.112-2.166v-2.473c2.8,1.443,5.282,2.166,7.448,2.166
		c1.461,0,2.657-0.386,3.593-1.16c0.938-0.773,1.406-1.76,1.406-2.963c0-0.823-0.306-1.583-0.918-2.278
		c-0.608-0.696-2.259-1.576-4.947-2.644c-2.688-1.067-4.431-2.12-5.23-3.158c-0.798-1.041-1.197-2.194-1.197-3.467
		c0-1.804,0.741-3.338,2.229-4.599c1.487-1.265,3.294-1.895,5.426-1.895C236.382,40.444,238.495,41.113,240.781,42.455z"/>
	<path fill="#231F20" d="M266.627,51.885h-18.683c-0.052,0.414-0.078,0.824-0.078,1.237c0,2.646,0.944,4.89,2.836,6.728
		c1.891,1.837,4.122,2.758,6.698,2.758c3.008,0,5.944-1.18,8.815-3.533v2.861c-2.715,2.095-5.757,3.145-9.122,3.145
		c-3.421,0-6.245-1.186-8.479-3.559c-2.233-2.367-3.351-5.384-3.351-9.045c0-3.469,1.031-6.342,3.094-8.618
		c2.061-2.276,4.655-3.414,7.783-3.414c2.937,0,5.418,1.025,7.447,3.079C265.614,45.576,266.627,48.364,266.627,51.885z
		 M248.279,49.851h15.358c-0.893-4.621-3.394-6.934-7.497-6.934c-1.942,0-3.621,0.606-5.039,1.817
		C249.683,45.947,248.742,47.651,248.279,49.851z"/>
	<path fill="#231F20" d="M290.645,60.493v2.114c-2.18,1.648-3.778,2.473-4.793,2.473c-0.584,0-0.988-0.195-1.211-0.58
		c-0.223-0.387-0.387-1.173-0.488-2.357c-2.492,1.957-4.965,2.938-7.424,2.938c-1.787,0-3.299-0.582-4.535-1.753
		c-1.235-1.168-1.855-2.587-1.855-4.253c0-2.575,1.195-4.607,3.583-6.095c2.387-1.485,5.798-2.34,10.231-2.563v-3.015
		c0-3.229-1.754-4.845-5.257-4.845c-2.234,0-4.651,1.006-7.243,3.016v-2.604c2.682-1.683,5.232-2.524,7.655-2.524
		c2.146,0,3.915,0.527,5.31,1.585c1.391,1.055,2.084,2.59,2.084,4.6v14.765c0,0.809,0.189,1.214,0.568,1.214
		C287.75,62.607,288.875,61.9,290.645,60.493z M284.152,59.927v-7.397c-3.246-0.12-5.94,0.45-8.079,1.715
		c-2.14,1.262-3.21,2.871-3.21,4.83c0,1.102,0.447,2.029,1.342,2.783c0.892,0.757,2.01,1.135,3.352,1.135
		C279.719,62.992,281.919,61.971,284.152,59.927z"/>
	<path fill="#231F20" d="M312.5,40.907l-17.746,35.847h-2.588l8.291-16.746l-9.99-19.101h2.649l8.603,16.552l8.194-16.552H312.5z"/>
</g>
<g>
	<path fill="#367F96" d="M60.655,39.418c2.052-1.736,3.945-4.892,3.945-9.704c0-4.101-2.052-8.046-6.074-8.046
		c-3.076,0-5.364,3.314-5.364,7.021C53.162,32.555,55.293,35.237,60.655,39.418z"/>
	<path fill="#367F96" d="M52.216,45.096c-2.128,2.287-3.312,5.602-3.312,8.678c0,7.571,5.204,11.123,10.49,11.123
		c3.55,0,7.336-2.132,9.387-4.577C62.944,54.402,58.922,50.933,52.216,45.096z"/>
	<path fill="#367F96" d="M49.813,0C22.302,0,0,22.302,0,49.812c0,27.512,22.302,49.813,49.813,49.813s49.813-22.302,49.813-49.813
		C99.627,22.302,77.325,0,49.813,0z M34.927,45.885c-1.104,0.395-1.894,0.158-2.445-0.314c-1.341-1.104-2.287-1.658-3.628-1.658
		c-1.499,0-3.076,1.025-4.418,4.103v14.673c0,4.889,0.476,5.205,6.547,5.758v2.523H9.372v-2.523
		c4.257-0.475,5.047-0.869,5.047-5.758V45.491c0-4.023-0.632-4.339-4.26-5.206v-2.21c4.731-0.629,9.385-1.498,14.276-2.997v8.36
		h0.237c2.841-4.889,5.915-8.28,8.835-8.28c3.155,0,5.285,2.206,5.285,4.891C38.793,42.886,37.058,45.096,34.927,45.885z
		 M91.103,71.127l-0.47,0.945c-7.81,0-12.543-1.812-13.569-2.838c-1.025-1.025-3.313-3.709-6.231-6.547
		c-4.891,6.389-9.938,9.385-15.225,9.385c-10.727,0-16.486-7.886-16.486-14.67c0-6.626,4.024-9.467,11.044-14.357
		c-3.155-3.074-5.284-6.546-5.284-11.201c0-7.02,6.547-13.174,14.356-13.174c7.887,0,13.408,4.892,13.408,11.439
		c0,2.761-1.26,4.731-3.393,6.468c-1.575,1.42-3.784,2.997-6.309,4.653c2.289,1.973,6.784,5.916,12.305,11.043
		c1.341-2.052,2.603-4.259,3.865-6.782c1.578-3.551,1.026-4.655-4.337-5.442v-2.685h18.693v2.685
		c-4.89,0.552-6.546,1.577-9.388,5.284c-2.207,2.761-4.181,5.758-6.626,9.229C82.506,59.451,87.396,65.525,91.103,71.127z"/>
</g>
</svg>
