<?xml version="1.0" encoding="utf-8"?>
<!-- Generator: Adobe Illustrator 16.0.0, SVG Export Plug-In . SVG Version: 6.00 Build 0)  -->
<!DOCTYPE svg PUBLIC "-//W3C//DTD SVG 1.1//EN" "http://www.w3.org/Graphics/SVG/1.1/DTD/svg11.dtd">
<svg version="1.1" id="Layer_1" xmlns="http://www.w3.org/2000/svg" xmlns:xlink="http://www.w3.org/1999/xlink" x="0px" y="0px" preserveAspectRatio="xMidyMid meet" viewBox="0 0 100 80" enable-background="new 0 0 100 80" xml:space="preserve">
<path fill="#377F95" d="M99.077,52.516c-5.456-0.527-4.001-6.077-4.14-9.732c-0.028-0.764-0.109-3.408,0.219-5.59
	c0.274-0.609,0.438-1.264,0.489-1.959c0.293-0.712,0.697-1.177,1.254-1.188c0.567-0.01,0.933-0.48,0.916-0.96
	c0.004-0.04,0.021-0.073,0.019-0.116c-0.17-3.609-3.764-5.021-5.288-7.739c-0.011-0.526-0.03-1.038-0.104-1.506
	c-0.136-0.861-0.968-1.829-1.516-2.471c-2.184-2.56-1.436-4.956-1.465-7.924c-0.008-0.726-1.064-1.305-1.596-0.646
	c-0.229,0.284-0.442,0.58-0.654,0.879c0.039-2.002-0.318-4.196-2.176-4.196c-1.637,0-2.86,0.367-4.722-0.091
	c-1.872-0.461-3.544,0.075-4.913-1.71c-0.681-0.889-0.996-2.174-1.877-2.92c-1.854-1.571-4.023-1.414-6.354-1.852
	c-2.873-0.541-4.707-2.617-7.785-2.779c-2.937-0.155-5.976,0.992-8.876,1.273c-3.77,0.366-7.543,0.136-11.302,0.687
	c-0.878,0.128-1.52,0.483-2.275,0.87c-2.36,1.207-4.158,1.483-6.688,1.226c-1.313-0.133-5.121-1.189-6.188,0.104
	C23.826,4.45,23.45,4.8,23.324,5.171c-0.735,2.137-2.068,1.823-3.458,3.095c-2.434,2.228-3.705,4.93-5.159,7.823
	c-1.186,2.358-3.138,4.08-4.111,6.544c-0.838,2.119-0.986,4.088-2.673,5.859c-0.855,0.897-1.878,1.497-2.659,2.48
	c-1.25,1.574-0.964,3.966-0.936,5.795c0.037,2.35,0.079,4.593-0.377,6.92c-0.243,1.237-2.767,2.471-3.68,3.532
	c-0.308,0.356-0.411,0.947,0,1.292c1.356,1.137,0.98,2.371,0.898,3.772c-0.038,0.629,0.622,0.989,1.183,0.881
	c2.313-0.453,4.073,1.343,5.882,2.242c0.901,0.448,1.891,0.604,2.869,0.838c-2.061,1.002-4.279,1.634-6.289,2.779
	c-0.819,0.467-0.446,1.679,0.472,1.702c0.76,0.02,3.574-0.41,3.574,0.583c0,0.941,0.388,1.565,0.822,2.363
	c0.341,0.626,1.041,0.981,1.639,1.305c2.216,1.199,2.643,2.877,2.275,5.211c-0.195,1.236-0.079,3.525,1.099,4.325
	c1.548,1.051,1.024,3.903,2.848,5.237c0.313,0.229,0.621,0.216,0.864,0.07c0.426-0.048,0.837-0.327,0.877-0.859
	c0.503-6.646-0.981-13.355,0.804-19.889c1.46-5.341,6.763-5.008,11.022-4.075c2.477,0.543,5.079-0.839,7.717-0.441
	c1.494,0.224,3.395,0.926,5.096,0.866c1.68,0.179,3.237-0.111,4.629-1.156c1.255-0.16,2.516-0.074,4.018,0.3
	c3.579,0.895,3.852-1.182,4.711-3.376c2.394,1.583,5.109,3.459,8.085,1.957c1.867-0.942,1.88-2.358,1.497-3.931
	c0.175-0.077,0.371-0.184,0.636-0.337c2.742-1.585,3.406-1.24,6.119-1.247c2.119-0.005,3.072-0.502,5.153,0.776
	c2.331,1.435,2.853,4.913,3.538,7.294c1.638,5.688,2.034,11.921,1.888,17.81c-0.04,1.643-0.963,5.718,1.518,6.385
	c1.796,0.482,4.843-0.809,5.793-2.37c0.427-0.702,1.241-1.85,0.933-2.736c-0.753-2.168-0.17-3.388,0.252-5.55
	c0.36-1.847,1.173-2.994,1.036-4.881c-0.188-2.567-1.702-4.945,1.807-6.389c2.21-0.907,3.961-1.853,4.441-4.299
	C100.101,53.05,99.71,52.578,99.077,52.516z"/>
<path fill="#377F95" d="M44.708,60.552c-1.147-3.49-7.013-3.893-10.116-3.829c-2.472,0.052-5.341,1.417-7.547,2.381
	c-1.844,0.806-2.475,2.142-3.232,3.903c-0.12,0.277,0.019,0.696,0.24,0.889c0.227,0.197,0.419,0.328,0.691,0.469
	c0.14,0.073,0.275,0.105,0.407,0.112c0.237,0.265,0.639,0.4,0.983,0.308c2.553-0.688,4.496-2.379,6.946-3.288
	c3.374-1.255,7.354,1.119,10.975,0.179C44.532,61.552,44.863,61.022,44.708,60.552z"/>
<path fill="#377F95" d="M76.938,59.188c-4.616-3.108-16.388-5.594-19.366,0.818c-0.249,0.536-0.064,1.165,0.559,1.343
	c0.769,0.218,0.769,0.218,1.634,0.199c0.003,0,0.4,0.019,0.624-0.004c2.269-0.236,4.388-0.92,6.588-1.477
	c3.335-0.843,6.23,0.564,9.49,0.822C77.469,60.968,77.636,59.658,76.938,59.188z"/>
</svg>
